<?xml version="1.0" standalone="no"?>
<!DOCTYPE svg PUBLIC "-//W3C//DTD SVG 20010904//EN"
 "http://www.w3.org/TR/2001/REC-SVG-20010904/DTD/svg10.dtd">
<svg version="1.0" xmlns="http://www.w3.org/2000/svg"
 width="200.000000pt" height="200.000000pt" viewBox="0 0 200.000000 200.000000"
 preserveAspectRatio="xMidYMid meet">

<g transform="translate(0.000000,200.000000) scale(0.100000,-0.100000)"
fill="#000000" stroke="none">
<path d="M810 1936 c-36 -8 -76 -19 -90 -25 l-25 -12 25 6 c156 32 202 37 315
32 138 -5 252 -31 362 -82 40 -19 73 -31 73 -29 0 11 -150 74 -225 94 -102 28
-336 36 -435 16z"/>
<path d="M981 1897 c-1 -19 -8 -31 -23 -37 l-23 -9 23 0 c17 -1 22 -7 22 -26
0 -14 4 -25 9 -25 5 0 7 9 4 21 -4 15 0 22 18 26 21 6 22 7 3 13 -10 4 -22 20
-25 36 l-7 29 -1 -28z"/>
<path d="M608 1871 c-218 -93 -413 -294 -504 -519 -68 -168 -90 -386 -54 -532
6 -23 6 -11 2 35 -37 378 89 678 378 900 52 40 151 95 240 133 14 6 21 11 15
11 -5 0 -40 -12 -77 -28z"/>
<path d="M810 1885 c-15 -18 -1 -40 31 -50 26 -9 24 -34 -3 -45 l-23 -9 22 0
c26 -1 54 25 47 43 -3 8 -19 20 -35 26 -35 15 -38 37 -6 43 21 4 21 4 1 6 -12
0 -27 -6 -34 -14z"/>
<path d="M1087 1845 c-8 -73 -10 -87 -20 -102 -4 -6 -3 -14 3 -18 11 -7 13 -2
28 71 6 28 8 64 3 80 -7 25 -8 21 -14 -31z"/>
<path d="M1163 1874 c-3 -8 4 -25 16 -38 29 -31 27 -50 -4 -44 -14 3 -25 1
-25 -3 0 -5 16 -9 35 -9 30 0 35 3 35 23 0 13 -9 32 -20 42 -27 25 -25 38 5
33 13 -3 22 -1 19 3 -9 15 -54 10 -61 -7z"/>
<path d="M740 1877 c0 -16 33 -108 37 -104 7 8 -19 107 -29 107 -4 0 -8 -1 -8
-3z"/>
<path d="M1266 1823 c-18 -53 -19 -63 -8 -63 11 0 41 100 31 105 -4 3 -14 -16
-23 -42z"/>
<path d="M654 1846 c-25 -19 -8 -50 30 -54 32 -4 38 -42 6 -42 -11 0 -20 -4
-20 -10 0 -13 3 -13 35 2 37 17 30 50 -12 63 -36 10 -42 28 -15 44 9 6 12 11
6 11 -5 0 -19 -6 -30 -14z"/>
<path d="M1320 1810 c-18 -34 -8 -73 23 -90 24 -13 29 -13 37 0 16 25 11 34
-8 16 -18 -15 -20 -15 -37 4 -15 17 -16 24 -7 45 15 33 37 41 69 26 23 -11 25
-10 13 3 -19 24 -77 21 -90 -4z"/>
<path d="M581 1815 c0 -5 6 -21 14 -35 22 -39 18 -41 -30 -18 -24 12 -47 19
-51 16 -3 -4 6 -27 21 -53 30 -50 46 -55 20 -6 -18 37 -16 37 36 10 48 -24 56
-20 40 18 -14 33 -51 82 -50 68z"/>
<path d="M1480 1817 c0 -2 24 -20 53 -39 118 -79 223 -194 304 -337 45 -79 58
-90 22 -18 -65 128 -238 320 -337 375 -23 13 -42 21 -42 19z"/>
<path d="M1433 1740 c-45 -78 -21 -76 26 3 16 26 19 37 9 37 -7 0 -23 -18 -35
-40z"/>
<path d="M450 1733 c-14 -9 -27 -18 -29 -19 -4 -4 61 -94 68 -94 10 1 51 38
51 46 0 4 -9 -1 -20 -11 -19 -17 -22 -18 -37 -2 -16 16 -16 18 2 32 19 15 19
15 -6 9 -36 -8 -46 12 -17 36 28 24 21 26 -12 3z"/>
<path d="M1482 1706 c-29 -41 -30 -44 -14 -58 31 -27 49 -34 30 -11 -23 25
-23 28 7 67 26 35 30 46 17 46 -5 0 -23 -20 -40 -44z"/>
<path d="M880 1733 c8 -3 20 -10 26 -14 7 -5 11 -3 11 6 0 10 -10 15 -26 14
-16 0 -20 -3 -11 -6z"/>
<path d="M935 1730 c3 -5 11 -10 16 -10 6 0 7 5 4 10 -3 6 -11 10 -16 10 -6 0
-7 -4 -4 -10z"/>
<path d="M820 1720 c-8 -5 -10 -10 -5 -10 6 0 17 5 25 10 8 5 11 10 5 10 -5 0
-17 -5 -25 -10z"/>
<path d="M776 1711 c-19 -7 -19 -8 0 -13 13 -3 21 0 21 8 0 8 -1 14 -1 13 -1
0 -10 -4 -20 -8z"/>
<path d="M985 1710 c-3 -6 1 -7 9 -4 18 7 21 14 7 14 -6 0 -13 -4 -16 -10z"/>
<path d="M886 1689 c5 -8 9 -18 9 -23 0 -5 15 -10 34 -11 18 -2 37 -9 42 -16
7 -11 9 -10 9 5 0 13 5 17 20 13 12 -3 20 0 20 8 0 8 -8 11 -20 8 -11 -3 -20
-1 -20 5 0 7 -10 8 -29 2 -21 -6 -35 -4 -52 8 -17 12 -20 12 -13 1z"/>
<path d="M356 1657 c-32 -32 -33 -51 -1 -82 30 -31 47 -31 80 -2 l27 22 -21
19 c-12 11 -21 14 -21 8 0 -6 5 -14 10 -17 15 -10 12 -23 -9 -34 -14 -8 -25
-6 -45 10 -32 25 -33 53 -4 73 12 9 19 18 16 22 -4 3 -18 -5 -32 -19z"/>
<path d="M758 1673 c7 -3 16 -2 19 1 4 3 -2 6 -13 5 -11 0 -14 -3 -6 -6z"/>
<path d="M818 1673 c6 -2 18 -2 25 0 6 3 1 5 -13 5 -14 0 -19 -2 -12 -5z"/>
<path d="M1069 1679 c-6 -27 -2 -115 6 -129 7 -14 10 -1 8 52 -1 38 -4 72 -7
76 -3 3 -6 3 -7 1z"/>
<path d="M1561 1646 c-37 -38 -36 -57 1 -77 23 -12 23 -12 4 10 -19 21 -19 22
12 54 18 18 32 36 32 40 0 15 -18 5 -49 -27z"/>
<path d="M647 1647 c-20 -11 -37 -25 -37 -31 0 -5 9 -1 19 8 10 9 32 21 47 25
16 4 24 10 18 13 -5 4 -26 -3 -47 -15z"/>
<path d="M730 1640 c18 -12 57 -13 64 -2 2 4 -14 9 -37 9 -30 2 -37 -1 -27 -7z"/>
<path d="M815 1630 c-3 -5 -1 -10 4 -10 6 0 11 5 11 10 0 6 -2 10 -4 10 -3 0
-8 -4 -11 -10z"/>
<path d="M896 1612 c-7 -12 40 -29 51 -18 4 3 -3 6 -14 6 -12 0 -23 5 -25 12
-3 9 -6 9 -12 0z"/>
<path d="M1130 1613 c8 -3 18 -11 22 -17 5 -7 8 -4 8 7 0 11 -7 17 -22 16 -16
0 -18 -2 -8 -6z"/>
<path d="M1232 1600 c7 -11 16 -20 20 -20 5 0 3 9 -4 20 -7 11 -16 20 -20 20
-5 0 -3 -9 4 -20z"/>
<path d="M780 1597 c0 -7 4 -17 8 -22 5 -6 14 -30 21 -54 9 -30 15 -40 21 -31
5 8 3 19 -6 27 -8 8 -14 29 -14 48 0 20 -6 35 -15 39 -8 3 -15 0 -15 -7z"/>
<path d="M1630 1575 c-32 -33 -33 -35 -16 -60 21 -32 43 -31 85 5 47 40 35 48
-12 9 -21 -17 -44 -28 -52 -25 -25 9 -17 43 15 66 17 12 30 26 30 31 0 17 -16
9 -50 -26z"/>
<path d="M625 1570 c-18 -19 -31 -26 -36 -19 -3 6 -9 0 -13 -14 -3 -14 -9 -33
-12 -44 -4 -11 0 -9 11 7 10 14 34 42 54 63 19 20 33 37 30 37 -3 0 -18 -14
-34 -30z"/>
<path d="M845 1551 c0 -16 3 -27 8 -24 4 2 7 -1 7 -8 0 -7 3 -10 6 -6 7 7 -5
67 -14 67 -4 0 -7 -13 -7 -29z"/>
<path d="M900 1546 c0 -33 -10 -57 -21 -50 -5 3 -9 1 -9 -5 0 -27 18 -14 42
30 24 45 24 49 7 49 -13 0 -19 -7 -19 -24z"/>
<path d="M1208 1548 c11 -14 10 -18 -5 -27 -16 -9 -15 -10 7 -8 24 2 40 14 40
30 0 5 -5 5 -10 2 -6 -4 -19 -1 -28 7 -15 12 -16 11 -4 -4z"/>
<path d="M256 1542 c-2 -4 11 -32 31 -62 20 -33 32 -45 29 -31 -7 32 14 61 44
62 22 0 21 2 -10 13 -56 20 -88 27 -94 18z m52 -20 c7 -5 10 -16 6 -26 -5 -13
-9 -14 -20 -5 -15 12 -19 39 -6 39 4 0 13 -4 20 -8z"/>
<path d="M1297 1523 c-16 -16 -19 -16 -28 -3 -8 11 -9 6 -5 -19 4 -21 1 -40
-6 -50 -11 -14 -11 -14 3 -4 13 11 19 10 33 -5 9 -10 13 -22 9 -27 -5 -4 2 -3
14 4 31 16 36 29 10 24 -17 -3 -26 2 -37 21 -12 24 -11 28 10 51 26 28 24 34
-3 8z"/>
<path d="M1712 1483 c-23 -14 -42 -29 -42 -35 0 -5 14 0 31 12 37 27 46 22 19
-13 -35 -45 -22 -53 48 -31 23 7 2 -16 -31 -33 -18 -9 -26 -18 -19 -20 17 -6
104 46 96 58 -3 6 -24 7 -52 3 l-46 -7 27 32 c46 55 32 71 -31 34z"/>
<path d="M1018 1477 c-3 -19 -2 -25 4 -19 6 6 8 18 6 28 -3 14 -5 12 -10 -9z"/>
<path d="M1133 1464 c-19 -29 -19 -32 -3 -22 16 10 35 48 27 54 -1 1 -12 -13
-24 -32z"/>
<path d="M1365 1460 c-3 -5 -1 -10 4 -10 6 0 10 -8 9 -17 -2 -32 2 -54 10 -49
4 2 6 23 4 45 -4 40 -14 52 -27 31z"/>
<path d="M190 1433 c-11 -14 -20 -28 -20 -32 0 -10 97 -60 104 -54 3 4 -3 12
-14 20 -28 20 -25 33 9 33 17 0 33 5 36 10 4 6 -8 10 -29 10 -24 0 -36 5 -36
14 0 26 -29 26 -50 -1z m40 -24 c0 -15 -4 -19 -16 -15 -9 3 -18 6 -20 6 -2 0
-4 7 -4 15 0 8 9 15 20 15 14 0 20 -7 20 -21z"/>
<path d="M996 1423 c-6 -14 -5 -15 5 -6 7 7 10 15 7 18 -3 3 -9 -2 -12 -12z"/>
<path d="M1157 1420 c-21 -25 -22 -31 -2 -24 8 4 15 12 15 19 0 7 6 16 13 18
6 3 7 6 2 6 -6 1 -18 -8 -28 -19z"/>
<path d="M1078 1423 c-14 -3 -18 -14 -17 -41 2 -34 2 -34 6 -7 3 16 12 35 21
42 18 13 17 13 -10 6z"/>
<path d="M671 1417 c2 -1 13 -9 24 -17 19 -14 19 -14 6 3 -7 9 -18 17 -24 17
-6 0 -8 -1 -6 -3z"/>
<path d="M1110 1389 c0 -5 5 -7 10 -4 6 3 10 8 10 11 0 2 -4 4 -10 4 -5 0 -10
-5 -10 -11z"/>
<path d="M618 1383 c18 -3 23 -10 19 -24 -5 -20 17 -27 28 -9 3 6 1 10 -4 10
-6 0 -11 7 -11 15 0 10 -9 15 -27 14 -25 -2 -26 -2 -5 -6z"/>
<path d="M1184 1370 c0 -13 4 -16 10 -10 7 7 7 13 0 20 -6 6 -10 3 -10 -10z"/>
<path d="M993 1340 c0 -25 2 -35 4 -22 2 12 2 32 0 45 -2 12 -4 2 -4 -23z"/>
<path d="M1252 1360 c-12 -19 -11 -20 8 -8 11 7 20 16 20 20 0 15 -15 8 -28
-12z"/>
<path d="M1388 1353 c-2 -10 -1 -29 3 -43 6 -20 7 -17 8 18 1 44 -4 54 -11 25z"/>
<path d="M144 1335 c-9 -13 -14 -30 -12 -36 4 -13 98 -51 98 -39 0 4 -7 10
-15 14 -9 3 -15 18 -15 35 0 20 -7 34 -20 41 -16 9 -22 6 -36 -15z m41 -24 c0
-8 -4 -16 -10 -18 -16 -5 -38 14 -30 26 9 16 40 9 40 -8z"/>
<path d="M705 1350 c3 -5 11 -10 16 -10 6 0 7 5 4 10 -3 6 -11 10 -16 10 -6 0
-7 -4 -4 -10z"/>
<path d="M1880 1355 c0 -5 5 -17 10 -25 5 -8 10 -10 10 -5 0 6 -5 17 -10 25
-5 8 -10 11 -10 5z"/>
<path d="M583 1326 c11 -9 15 -20 11 -32 -5 -16 -4 -16 5 -4 17 23 13 37 -11
43 -21 6 -22 5 -5 -7z"/>
<path d="M1222 1320 c0 -14 2 -19 5 -12 2 6 2 18 0 25 -3 6 -5 1 -5 -13z"/>
<path d="M749 1313 c-13 -17 -13 -17 6 -3 11 8 22 16 24 17 2 2 0 3 -6 3 -6 0
-17 -8 -24 -17z"/>
<path d="M1250 1318 c-5 -45 -3 -64 7 -82 9 -16 10 -10 6 30 -5 56 -11 77 -13
52z"/>
<path d="M638 1303 c7 -3 16 -2 19 1 4 3 -2 6 -13 5 -11 0 -14 -3 -6 -6z"/>
<path d="M1051 1293 c-1 -25 -20 -30 -40 -10 -11 10 -13 9 -9 -3 3 -8 14 -16
26 -18 17 -3 22 -11 25 -50 l3 -47 2 47 c2 37 6 48 22 53 11 3 24 4 29 1 5 -3
12 1 15 10 10 27 7 39 -6 22 -7 -9 -23 -19 -35 -22 -17 -6 -22 -2 -26 16 l-4
23 -2 -22z"/>
<path d="M1816 1295 c-21 -7 -43 -18 -49 -24 -13 -13 -1 -57 19 -65 19 -7 83
10 99 27 7 7 4 8 -10 2 -46 -17 -92 -18 -98 -1 -7 19 17 46 42 46 9 0 26 7 37
15 24 18 10 18 -40 0z"/>
<path d="M1190 1280 c-6 -11 -8 -20 -6 -20 3 0 10 9 16 20 6 11 8 20 6 20 -3
0 -10 -9 -16 -20z"/>
<path d="M670 1273 c0 -10 4 -14 8 -8 4 6 11 13 16 18 5 4 2 7 -7 7 -10 0 -17
-8 -17 -17z"/>
<path d="M1151 1244 c0 -11 3 -14 6 -6 3 7 2 16 -1 19 -3 4 -6 -2 -5 -13z"/>
<path d="M1097 1223 c-7 -39 -1 -40 11 -4 6 17 7 31 3 31 -5 0 -11 -12 -14
-27z"/>
<path d="M591 1207 c-13 -21 -12 -21 5 -5 10 10 16 20 13 22 -3 3 -11 -5 -18
-17z"/>
<path d="M730 1217 c0 -11 -8 -17 -22 -18 -22 -1 -22 -1 2 -8 29 -8 50 13 31
32 -8 8 -11 6 -11 -6z"/>
<path d="M261 1183 c1 -23 2 -24 6 -6 2 12 12 24 21 26 12 3 10 5 -5 6 -19 1
-23 -4 -22 -26z"/>
<path d="M623 1195 c-3 -9 -3 -18 -1 -21 3 -3 8 4 11 16 6 23 -1 27 -10 5z"/>
<path d="M1265 1199 c-9 -14 -2 -20 14 -10 8 6 9 11 3 15 -6 3 -14 1 -17 -5z"/>
<path d="M358 1193 c6 -2 18 -2 25 0 6 3 1 5 -13 5 -14 0 -19 -2 -12 -5z"/>
<path d="M1931 1184 c0 -11 3 -14 6 -6 3 7 2 16 -1 19 -3 4 -6 -2 -5 -13z"/>
<path d="M448 1183 c12 -2 30 -2 40 0 9 3 -1 5 -23 4 -22 0 -30 -2 -17 -4z"/>
<path d="M920 1184 c0 -6 -25 -33 -56 -59 l-55 -48 -32 29 -32 29 29 -32 c18
-20 25 -36 20 -45 -7 -13 3 -4 80 65 22 20 43 34 47 31 13 -7 18 11 8 26 -5 8
-9 10 -9 4z"/>
<path d="M1210 1180 c-13 -8 -13 -10 2 -10 9 0 20 5 23 10 8 13 -5 13 -25 0z"/>
<path d="M96 1171 c14 -14 104 -25 104 -13 0 5 -17 12 -37 16 -55 9 -79 8 -67
-3z"/>
<path d="M1135 1171 c-3 -5 -1 -12 5 -16 5 -3 10 1 10 9 0 18 -6 21 -15 7z"/>
<path d="M1350 1170 c-9 -6 -10 -10 -3 -10 6 0 15 5 18 10 8 12 4 12 -15 0z"/>
<path d="M1663 1173 c55 -4 57 -5 57 -31 0 -16 -5 -33 -10 -38 -7 -7 -6 -11 5
-11 11 0 15 11 15 44 l0 43 -62 -2 -63 -2 58 -3z"/>
<path d="M1837 1170 c-54 -10 -60 -24 -7 -16 l45 7 -39 -40 c-22 -22 -37 -43
-35 -46 9 -8 109 7 109 18 0 5 -15 7 -35 3 -43 -8 -44 -2 -5 31 31 25 40 54
18 52 -7 -1 -30 -5 -51 -9z"/>
<path d="M590 1155 c-7 -9 -11 -17 -9 -20 3 -2 10 5 17 15 14 24 10 26 -8 5z"/>
<path d="M1080 1146 c0 -22 3 -27 11 -19 8 8 8 16 0 30 -9 16 -10 14 -11 -11z"/>
<path d="M1255 1154 c-19 -9 -22 -12 -7 -8 13 3 29 0 37 -6 16 -13 20 -3 7 17
-5 8 -15 7 -37 -3z"/>
<path d="M500 1156 c0 -2 7 -7 16 -10 8 -3 12 -2 9 4 -6 10 -25 14 -25 6z"/>
<path d="M630 1156 c0 -2 8 -10 18 -17 15 -13 16 -12 3 4 -13 16 -21 21 -21
13z"/>
<path d="M1195 1150 c-8 -13 -1 -24 14 -19 6 3 7 10 2 18 -6 10 -10 10 -16 1z"/>
<path d="M1942 1125 c0 -16 2 -22 5 -12 2 9 2 23 0 30 -3 6 -5 -1 -5 -18z"/>
<path d="M553 1105 c0 -22 2 -30 4 -17 2 12 2 30 0 40 -3 9 -5 -1 -4 -23z"/>
<path d="M1043 1055 c0 -44 2 -61 4 -37 2 23 2 59 0 80 -2 20 -4 1 -4 -43z"/>
<path d="M1385 1120 c3 -5 8 -10 11 -10 2 0 4 5 4 10 0 6 -5 10 -11 10 -5 0
-7 -4 -4 -10z"/>
<path d="M1483 1109 c4 -21 17 -38 17 -21 0 5 2 17 5 25 4 8 0 14 -9 14 -9 0
-14 -8 -13 -18z"/>
<path d="M80 1113 c0 -11 46 -23 86 -23 13 0 24 5 24 10 0 6 -11 10 -24 10
-13 0 -38 3 -55 6 -18 4 -31 2 -31 -3z"/>
<path d="M385 1110 c-3 -5 -1 -10 4 -10 6 0 11 5 11 10 0 6 -2 10 -4 10 -3 0
-8 -4 -11 -10z"/>
<path d="M415 1110 c-3 -5 -1 -10 4 -10 6 0 11 5 11 10 0 6 -2 10 -4 10 -3 0
-8 -4 -11 -10z"/>
<path d="M571 1107 c-1 -10 8 -35 19 -56 10 -21 16 -41 13 -45 -4 -3 0 -6 7
-6 17 0 8 -99 -13 -132 -8 -12 -17 -36 -20 -53 -6 -29 -6 -29 10 5 16 35 16
35 24 10 7 -25 7 -25 8 -2 1 33 25 22 29 -13 2 -15 -2 -32 -10 -36 -10 -7 -9
-9 5 -9 25 0 25 76 -1 84 -15 5 -17 18 -17 90 0 46 3 82 6 80 4 -2 15 6 25 18
19 21 19 21 -4 7 -29 -18 -53 -4 -69 42 -7 19 -12 26 -12 16z"/>
<path d="M1012 1095 c0 -16 2 -22 5 -12 2 9 2 23 0 30 -3 6 -5 -1 -5 -18z"/>
<path d="M1110 1116 c0 -2 7 -7 16 -10 8 -3 12 -2 9 4 -6 10 -25 14 -25 6z"/>
<path d="M1280 1099 c-23 -6 -23 -7 -3 -8 12 -1 27 -9 32 -18 6 -10 11 -16 11
-13 10 44 2 52 -40 39z"/>
<path d="M1421 1075 c0 -26 2 -35 8 -26 5 7 14 10 20 7 6 -4 11 0 11 8 0 9 -6
16 -14 16 -8 0 -17 8 -19 18 -3 9 -5 -1 -6 -23z"/>
<path d="M716 1086 c4 -11 1 -22 -7 -27 -8 -5 -9 -9 -4 -9 26 0 35 16 20 36
-14 17 -15 18 -9 0z"/>
<path d="M1568 1093 c7 -3 16 -2 19 1 4 3 -2 6 -13 5 -11 0 -14 -3 -6 -6z"/>
<path d="M1200 1083 c14 -3 28 -10 32 -17 5 -7 8 -5 8 7 0 13 -8 17 -32 16
-28 -2 -29 -2 -8 -6z"/>
<path d="M865 1070 c3 -5 -1 -23 -10 -40 -21 -41 -12 -38 14 5 24 42 56 48 49
10 -3 -14 -2 -25 2 -25 4 0 10 14 12 30 4 29 3 30 -34 30 -23 0 -37 -4 -33
-10z"/>
<path d="M1070 1070 c0 -5 5 -10 11 -10 5 0 7 5 4 10 -3 6 -8 10 -11 10 -2 0
-4 -4 -4 -10z"/>
<path d="M1528 1073 c7 -3 16 -2 19 1 4 3 -2 6 -13 5 -11 0 -14 -3 -6 -6z"/>
<path d="M1722 1055 c0 -16 2 -22 5 -12 2 9 2 23 0 30 -3 6 -5 -1 -5 -18z"/>
<path d="M1340 1066 c0 -2 7 -6 15 -10 8 -3 15 -1 15 4 0 6 -7 10 -15 10 -8 0
-15 -2 -15 -4z"/>
<path d="M91 1046 c-7 -8 -15 -30 -18 -50 l-6 -36 62 0 c60 0 61 0 61 28 0 40
-26 72 -59 72 -16 0 -34 -6 -40 -14z m82 -27 c18 -29 1 -49 -42 -49 -43 0 -58
18 -40 51 13 24 66 23 82 -2z"/>
<path d="M541 1044 c0 -11 3 -14 6 -6 3 7 2 16 -1 19 -3 4 -6 -2 -5 -13z"/>
<path d="M750 1056 c0 -2 8 -10 18 -17 15 -13 16 -12 3 4 -13 16 -21 21 -21
13z"/>
<path d="M1953 985 c0 -44 2 -61 4 -37 2 23 2 59 0 80 -2 20 -4 1 -4 -43z"/>
<path d="M262 1030 c0 -14 2 -19 5 -12 2 6 2 18 0 25 -3 6 -5 1 -5 -13z"/>
<path d="M1231 1034 c0 -11 3 -14 6 -6 3 7 2 16 -1 19 -3 4 -6 -2 -5 -13z"/>
<path d="M1820 1030 c-19 -6 -9 -8 38 -9 35 -1 62 3 62 9 0 12 -64 12 -100 0z"/>
<path d="M426 1015 c-3 -8 -1 -15 4 -15 6 0 10 7 10 15 0 8 -2 15 -4 15 -2 0
-6 -7 -10 -15z"/>
<path d="M366 1003 c-6 -14 -5 -15 5 -6 7 7 10 15 7 18 -3 3 -9 -2 -12 -12z"/>
<path d="M990 1000 c0 -5 5 -10 10 -10 6 0 10 5 10 10 0 6 -4 10 -10 10 -5 0
-10 -4 -10 -10z"/>
<path d="M275 980 c4 -14 12 -29 17 -35 7 -7 8 -2 3 15 -4 14 -12 30 -17 35
-7 7 -8 2 -3 -15z"/>
<path d="M1066 984 c-7 -19 -8 -269 -1 -262 3 3 6 44 6 91 1 57 6 87 13 87 6
0 5 4 -3 9 -10 6 -12 21 -8 50 5 43 3 52 -7 25z"/>
<path d="M1261 984 c0 -11 3 -14 6 -6 3 7 2 16 -1 19 -3 4 -6 -2 -5 -13z"/>
<path d="M390 974 c0 -8 5 -12 10 -9 6 4 8 11 5 16 -9 14 -15 11 -15 -7z"/>
<path d="M517 983 c-4 -3 -7 -11 -7 -17 0 -6 5 -5 12 2 6 6 9 14 7 17 -3 3 -9
2 -12 -2z"/>
<path d="M870 969 c-22 -18 -22 -19 -3 -10 12 6 25 16 28 21 9 15 3 12 -25
-11z"/>
<path d="M1348 983 c7 -3 16 -2 19 1 4 3 -2 6 -13 5 -11 0 -14 -3 -6 -6z"/>
<path d="M340 970 c-9 -6 -10 -10 -3 -10 6 0 15 5 18 10 8 12 4 12 -15 0z"/>
<path d="M1151 964 c0 -11 3 -14 6 -6 3 7 2 16 -1 19 -3 4 -6 -2 -5 -13z"/>
<path d="M1390 971 c0 -5 5 -13 10 -16 6 -3 10 -2 10 4 0 5 -4 13 -10 16 -5 3
-10 2 -10 -4z"/>
<path d="M1852 963 c-29 -9 -51 -20 -50 -25 4 -12 108 -59 108 -49 0 5 -10 11
-22 14 -13 4 -32 12 -42 20 -18 13 -17 15 20 27 21 7 43 16 49 21 12 12 1 11
-63 -8z"/>
<path d="M448 963 c7 -3 16 -2 19 1 4 3 -2 6 -13 5 -11 0 -14 -3 -6 -6z"/>
<path d="M814 958 c-10 -14 -10 -23 -1 -88 4 -25 9 -63 11 -85 3 -22 8 -63 11
-91 l7 -52 -53 -8 c-30 -4 -46 -9 -36 -12 9 -2 17 -9 17 -15 0 -7 5 -4 11 6 5
9 21 17 34 17 20 0 25 -5 25 -25 0 -17 -6 -26 -17 -27 -10 0 -23 -2 -30 -2 -7
-1 -19 -10 -26 -20 -9 -13 -21 -17 -36 -13 -11 3 -21 1 -21 -4 0 -15 47 -10
60 6 7 8 21 15 32 15 10 0 30 11 43 26 21 22 30 25 82 22 57 -3 57 -3 31 -17
-31 -16 -37 -31 -12 -31 9 0 29 -11 46 -25 17 -15 41 -24 56 -24 l27 2 -28 4
c-21 3 -27 9 -23 20 5 12 3 13 -6 5 -10 -7 -20 -4 -39 12 l-27 23 59 29 c43
21 58 34 57 49 0 17 -1 17 -5 3 -2 -10 -11 -18 -19 -18 -10 0 -14 14 -14 57 0
31 -3 54 -6 50 -3 -3 -6 -33 -5 -66 l1 -61 -83 0 -84 0 -16 152 c-13 112 -14
155 -6 165 9 10 8 13 0 13 -7 0 -9 5 -6 10 9 14 -1 12 -11 -2z"/>
<path d="M755 950 c4 -6 11 -8 16 -5 14 9 11 15 -7 15 -8 0 -12 -5 -9 -10z"/>
<path d="M390 940 c0 -5 5 -10 11 -10 5 0 7 5 4 10 -3 6 -8 10 -11 10 -2 0 -4
-4 -4 -10z"/>
<path d="M464 897 c-22 -29 -48 -53 -58 -55 -10 -2 -32 9 -50 25 -18 15 -14
11 7 -11 l39 -38 30 28 c39 38 92 104 81 103 -4 0 -26 -24 -49 -52z"/>
<path d="M1632 924 c-7 -8 -8 -14 -3 -14 10 0 25 19 20 25 -2 1 -10 -3 -17
-11z"/>
<path d="M305 920 c3 -5 8 -10 11 -10 2 0 4 5 4 10 0 6 -5 10 -11 10 -5 0 -7
-4 -4 -10z"/>
<path d="M1029 888 c-2 -24 -1 -61 2 -83 5 -29 7 -18 8 43 1 87 -5 110 -10 40z"/>
<path d="M1496 918 c5 -8 2 -9 -10 -5 -14 6 -13 1 6 -25 27 -39 79 -87 94 -88
5 0 23 15 40 32 25 28 25 30 3 10 -23 -20 -27 -21 -33 -6 -4 11 -13 14 -30 10
-34 -8 -72 34 -57 63 10 17 9 21 -4 21 -10 0 -13 -5 -9 -12z m91 -105 c-3 -3
-11 -2 -17 2 -9 6 -9 10 1 16 14 8 27 -7 16 -18z"/>
<path d="M100 909 c-19 -7 -14 -8 22 -5 32 2 51 -1 59 -10 16 -20 3 -44 -23
-44 -34 0 -68 -11 -68 -21 0 -11 80 0 98 14 15 12 16 49 0 65 -14 14 -51 14
-88 1z"/>
<path d="M382 913 c-6 -3 -10 -9 -6 -14 7 -12 41 -12 48 0 7 10 -23 20 -42 14z"/>
<path d="M710 910 c-12 -8 -10 -10 8 -10 13 0 20 4 17 10 -7 12 -6 12 -25 0z"/>
<path d="M660 890 c8 -5 22 -10 30 -10 13 0 13 1 0 10 -8 5 -22 10 -30 10 -13
0 -13 -1 0 -10z"/>
<path d="M1228 893 c7 -3 16 -2 19 1 4 3 -2 6 -13 5 -11 0 -14 -3 -6 -6z"/>
<path d="M1326 883 c17 -17 16 -18 -22 -23 l-39 -6 33 -8 c21 -5 38 -4 44 2
14 14 0 52 -18 52 -13 0 -12 -3 2 -17z"/>
<path d="M755 880 c-18 -8 -17 -9 8 -9 15 -1 27 4 27 9 0 12 -8 12 -35 0z"/>
<path d="M1391 863 c1 -21 37 -123 38 -108 0 6 -6 32 -14 59 -8 26 -12 52 -9
57 3 5 0 9 -5 9 -6 0 -11 -8 -10 -17z"/>
<path d="M1942 860 c0 -14 2 -19 5 -12 2 6 2 18 0 25 -3 6 -5 1 -5 -13z"/>
<path d="M1169 847 c16 -16 -1 -56 -25 -60 -21 -4 -20 -4 3 -3 20 1 29 7 33
25 7 33 27 38 33 9 4 -20 4 -20 6 5 0 15 5 27 10 27 5 0 12 -12 14 -27 4 -27
4 -27 6 3 1 31 0 31 -43 30 -25 0 -41 -5 -37 -9z"/>
<path d="M1790 849 c0 -8 -3 -25 -7 -38 -4 -17 -3 -22 5 -17 7 4 12 16 12 27
0 29 40 26 41 -3 1 -17 2 -19 6 -5 2 9 13 17 24 17 14 0 19 -7 20 -27 l1 -28
7 30 c10 39 4 44 -57 52 -41 4 -52 3 -52 -8z"/>
<path d="M670 836 c0 -2 9 -6 20 -9 11 -3 18 -1 14 4 -5 9 -34 13 -34 5z"/>
<path d="M738 823 c12 -2 32 -2 45 0 12 2 2 4 -23 4 -25 0 -35 -2 -22 -4z"/>
<path d="M1090 800 c0 -5 5 -10 11 -10 5 0 7 5 4 10 -3 6 -8 10 -11 10 -2 0
-4 -4 -4 -10z"/>
<path d="M1375 771 c3 -18 5 -66 5 -106 0 -58 3 -74 16 -79 14 -5 15 -4 4 9
-12 14 -5 16 66 13 l79 -3 1 -52 c1 -29 4 -60 7 -68 4 -8 2 -17 -3 -20 -6 -4
-10 -11 -10 -17 0 -7 5 -6 15 2 11 9 13 27 10 69 -2 31 -4 66 -5 79 0 21 -4
22 -85 22 l-85 0 0 45 c0 40 2 45 22 42 16 -1 23 4 25 18 3 19 3 19 -5 1 -10
-22 -13 -18 -45 44 l-17 35 5 -34z"/>
<path d="M106 760 c4 -19 10 -44 15 -55 8 -18 9 -17 6 5 -2 21 4 26 46 38 26
7 47 17 47 23 0 11 4 12 -53 -6 -47 -14 -48 -14 -57 8 -8 17 -9 14 -4 -13z"/>
<path d="M596 773 c-4 -9 -3 -20 2 -25 6 -6 11 1 14 16 6 29 -6 35 -16 9z"/>
<path d="M60 769 c0 -18 41 -142 46 -137 2 2 -8 37 -21 78 -13 41 -24 68 -25
59z"/>
<path d="M1091 754 c0 -11 3 -14 6 -6 3 7 2 16 -1 19 -3 4 -6 -2 -5 -13z"/>
<path d="M1154 762 c-9 -5 -8 -11 2 -20 12 -11 14 -9 14 8 0 22 0 23 -16 12z"/>
<path d="M1770 762 c0 -5 9 -12 20 -15 30 -8 24 -27 -10 -33 -16 -4 -30 -10
-30 -15 0 -5 13 -6 28 -3 19 4 32 1 41 -10 20 -23 40 -19 51 10 15 38 14 40
-31 53 -23 7 -47 15 -55 18 -8 3 -14 1 -14 -5z m94 -40 c9 -14 -12 -35 -28
-29 -23 9 -20 37 3 37 11 0 22 -4 25 -8z"/>
<path d="M1220 750 c0 -5 7 -7 15 -4 8 4 15 8 15 10 0 2 -7 4 -15 4 -8 0 -15
-4 -15 -10z"/>
<path d="M1283 725 c7 -13 14 -20 15 -14 5 14 -6 39 -17 39 -5 0 -4 -11 2 -25z"/>
<path d="M598 673 c-3 -54 -5 -58 -28 -60 -23 -2 -23 -2 -5 7 17 9 17 10 -7 7
-16 -3 -28 1 -28 7 0 7 -3 7 -8 -1 -4 -6 -25 -13 -47 -15 -39 -3 -40 -4 -42
-43 -2 -42 1 -39 11 8 5 22 12 27 36 27 17 0 30 -3 30 -7 0 -5 24 -7 52 -5
l53 4 0 64 c0 80 -13 85 -17 7z"/>
<path d="M1893 668 c-12 -35 -20 -64 -18 -66 5 -5 46 109 43 119 -2 5 -13 -19
-25 -53z"/>
<path d="M202 688 c-5 -7 -12 -24 -14 -37 -4 -33 -26 -38 -37 -9 -6 12 -10 18
-10 11 -2 -25 12 -43 34 -43 18 0 24 7 29 35 8 39 34 48 43 15 3 -11 9 -20 14
-20 9 0 1 28 -14 48 -5 6 -15 12 -22 12 -7 0 -17 -6 -23 -12z"/>
<path d="M531 674 c0 -11 3 -14 6 -6 3 7 2 16 -1 19 -3 4 -6 -2 -5 -13z"/>
<path d="M1156 675 c-9 -25 -7 -32 5 -15 7 11 9 -2 7 -47 -3 -34 -1 -60 3 -57
4 2 14 1 23 -2 13 -5 14 -9 5 -21 -10 -11 -14 -11 -20 -1 -6 9 -9 9 -9 1 0
-19 17 -24 29 -9 7 8 22 12 34 9 14 -3 9 2 -13 15 -32 18 -35 23 -38 73 -3 57
-15 82 -26 54z"/>
<path d="M1732 658 c-17 -17 -15 -57 3 -64 8 -4 26 1 40 10 36 24 48 20 42
-11 -5 -26 -4 -26 9 -8 18 24 18 30 0 44 -11 10 -22 9 -46 -4 -39 -20 -58 -8
-41 24 13 24 11 27 -7 9z"/>
<path d="M1232 630 c0 -14 2 -19 5 -12 2 6 2 18 0 25 -3 6 -5 1 -5 -13z"/>
<path d="M1141 624 c0 -11 3 -14 6 -6 3 7 2 16 -1 19 -3 4 -6 -2 -5 -13z"/>
<path d="M110 615 c0 -19 80 -157 125 -215 62 -81 166 -174 260 -231 43 -27
84 -49 89 -49 6 0 -23 20 -64 44 -157 92 -285 225 -370 386 -22 41 -39 71 -40
65z"/>
<path d="M1493 558 c-24 -25 -29 -38 -23 -53 8 -19 9 -19 9 2 1 12 13 35 27
52 34 41 26 40 -13 -1z"/>
<path d="M1822 517 c-85 -149 -210 -272 -369 -363 -42 -24 -73 -44 -69 -44 18
0 140 72 197 116 83 64 187 181 243 273 27 45 47 83 44 86 -2 3 -23 -28 -46
-68z"/>
<path d="M1135 569 c-5 -5 -19 -17 -30 -27 -11 -9 -16 -14 -11 -10 4 3 16 4
25 1 9 -4 13 -3 9 2 -4 4 0 14 10 21 9 7 15 14 12 17 -3 3 -9 1 -15 -4z"/>
<path d="M1690 571 c0 -12 73 -61 91 -61 19 0 -5 23 -50 48 -23 13 -41 19 -41
13z"/>
<path d="M252 537 c-51 -37 -43 -55 17 -39 23 5 41 8 41 5 0 -2 -11 -19 -24
-36 -40 -52 -19 -64 40 -22 54 39 52 47 -5 13 l-36 -22 18 24 c40 56 35 69
-21 52 l-37 -11 33 28 c31 26 40 42 25 40 -5 0 -27 -15 -51 -32z"/>
<path d="M510 566 c0 -2 8 -10 18 -17 15 -13 16 -12 3 4 -13 16 -21 21 -21 13z"/>
<path d="M1274 549 c14 -11 32 -18 39 -16 7 4 6 6 -4 6 -9 1 -22 8 -29 16 -7
8 -17 15 -23 15 -5 0 2 -9 17 -21z"/>
<path d="M1340 560 c0 -5 5 -10 11 -10 5 0 7 5 4 10 -3 6 -8 10 -11 10 -2 0
-4 -4 -4 -10z"/>
<path d="M499 536 c8 -9 24 -22 35 -28 19 -10 20 -10 7 6 -8 9 -24 22 -35 28
-19 10 -20 10 -7 -6z"/>
<path d="M600 546 c0 -2 7 -9 15 -16 13 -11 14 -10 9 4 -5 14 -24 23 -24 12z"/>
<path d="M653 543 c9 -2 23 -2 30 0 6 3 -1 5 -18 5 -16 0 -22 -2 -12 -5z"/>
<path d="M1393 524 c14 -17 15 -23 5 -27 -7 -3 -4 -5 7 -6 27 0 66 17 45 19
-8 2 -19 2 -24 1 -5 -1 -18 6 -30 16 -21 18 -21 18 -3 -3z"/>
<path d="M1507 529 c7 -7 15 -10 18 -7 3 3 -2 9 -12 12 -14 6 -15 5 -6 -5z"/>
<path d="M443 523 c9 -2 23 -2 30 0 6 3 -1 5 -18 5 -16 0 -22 -2 -12 -5z"/>
<path d="M564 498 c-3 -4 18 -8 47 -8 29 0 50 3 46 6 -9 10 -87 11 -93 2z"/>
<path d="M1660 489 c14 -12 33 -27 43 -34 16 -11 17 -17 7 -37 -9 -18 -6 -17
15 7 14 17 31 39 37 50 11 20 11 20 -10 1 -21 -18 -22 -18 -56 8 -41 31 -73
35 -36 5z"/>
<path d="M671 495 c8 -7 168 -9 175 -2 4 4 -35 7 -86 7 -51 0 -91 -2 -89 -5z"/>
<path d="M880 493 c0 -5 11 -8 25 -8 14 0 25 3 25 8 0 4 -11 7 -25 7 -14 0
-25 -3 -25 -7z"/>
<path d="M990 491 c0 -5 9 -7 20 -4 11 3 20 7 20 9 0 2 -9 4 -20 4 -11 0 -20
-4 -20 -9z"/>
<path d="M1090 496 c0 -2 9 -6 20 -9 11 -3 20 -1 20 4 0 5 -9 9 -20 9 -11 0
-20 -2 -20 -4z"/>
<path d="M1190 496 c0 -2 9 -6 20 -9 11 -3 20 -1 20 4 0 5 -9 9 -20 9 -11 0
-20 -2 -20 -4z"/>
<path d="M1290 491 c0 -5 9 -7 20 -4 11 3 20 7 20 9 0 2 -9 4 -20 4 -11 0 -20
-4 -20 -9z"/>
<path d="M485 480 c3 -5 8 -10 11 -10 2 0 4 5 4 10 0 6 -5 10 -11 10 -5 0 -7
-4 -4 -10z"/>
<path d="M1500 479 c0 -5 5 -7 10 -4 6 3 10 8 10 11 0 2 -4 4 -10 4 -5 0 -10
-5 -10 -11z"/>
<path d="M439 455 c5 -11 31 -37 58 -58 l49 -38 449 0 450 0 44 36 c24 19 39
35 34 35 -6 0 -24 -12 -40 -27 l-31 -28 -420 -1 c-385 -2 -420 0 -415 15 4 14
4 15 -6 0 -17 -26 -64 -21 -100 12 -18 16 -35 29 -38 29 -2 0 -14 10 -24 23
-17 19 -19 19 -10 2z"/>
<path d="M535 449 c-4 -6 -5 -12 -2 -15 2 -3 7 2 10 11 7 17 1 20 -8 4z"/>
<path d="M638 438 c2 -10 6 -18 7 -18 1 0 5 8 7 18 3 11 0 19 -7 19 -7 0 -10
-8 -7 -19z"/>
<path d="M1616 445 c9 -23 -25 -57 -49 -49 -12 4 -17 2 -13 -4 8 -14 95 -46
103 -39 7 8 -25 94 -38 102 -5 4 -6 -1 -3 -10z m27 -55 c5 -21 -8 -26 -32 -11
-7 5 -10 14 -7 20 11 18 33 13 39 -9z"/>
<path d="M1300 440 c0 -5 5 -10 11 -10 5 0 7 5 4 10 -3 6 -8 10 -11 10 -2 0
-4 -4 -4 -10z"/>
<path d="M356 410 c-20 -18 -36 -37 -36 -43 0 -6 15 3 33 21 61 59 105 27 47
-34 -19 -18 -30 -37 -27 -41 11 -11 67 60 64 81 -1 10 -12 25 -24 33 -19 13
-24 11 -57 -17z"/>
<path d="M1005 430 c3 -5 8 -10 11 -10 2 0 4 5 4 10 0 6 -5 10 -11 10 -5 0 -7
-4 -4 -10z"/>
<path d="M1045 410 c-3 -6 1 -7 9 -4 18 7 21 14 7 14 -6 0 -13 -4 -16 -10z"/>
<path d="M451 319 c-38 -46 -33 -69 5 -24 32 40 47 65 36 65 -5 0 -23 -18 -41
-41z"/>
<path d="M1500 352 c0 -4 13 -23 29 -42 28 -33 28 -36 13 -54 -15 -18 -13 -17
14 2 17 11 37 29 45 38 13 16 12 16 -7 4 -20 -12 -24 -11 -48 16 -14 16 -26
32 -26 37 0 10 -20 9 -20 -1z"/>
<path d="M520 304 c0 -15 -10 -34 -22 -44 -19 -15 -21 -20 -8 -34 33 -41 47
-38 79 14 29 47 29 69 1 35 -20 -24 -30 -17 -30 20 0 19 -4 35 -10 35 -5 0
-10 -12 -10 -26z m17 -52 c10 -7 10 -12 0 -26 -12 -16 -14 -16 -26 -2 -20 24
-1 45 26 28z"/>
<path d="M1430 300 c0 -16 51 -90 62 -90 11 0 11 2 -22 57 -24 41 -40 54 -40
33z"/>
<path d="M1368 274 c-43 -23 -30 -64 18 -64 31 0 41 -20 18 -37 -19 -14 -19
-15 0 -11 10 1 24 11 30 21 9 15 7 21 -8 33 -11 8 -30 14 -43 14 -29 0 -31 30
-3 37 11 3 20 9 20 14 0 11 1 11 -32 -7z"/>
<path d="M610 216 c0 -78 10 -83 60 -31 38 39 38 39 74 25 25 -9 25 -10 11
-57 -8 -26 -12 -49 -10 -52 8 -7 12 1 28 56 l16 52 -44 14 c-29 10 -46 12 -53
5 -17 -17 -62 -1 -62 22 0 10 -4 22 -10 25 -6 4 -10 -18 -10 -59z m48 -4 c9
-7 8 -13 -8 -27 -20 -18 -20 -18 -20 8 0 28 6 32 28 19z"/>
<path d="M1206 205 c-21 -22 -10 -42 30 -55 39 -13 43 -27 12 -40 -17 -6 -18
-9 -6 -9 22 -1 48 26 42 44 -3 7 -19 17 -35 20 -36 8 -40 41 -6 48 22 4 22 4
0 6 -12 0 -28 -6 -37 -14z"/>
<path d="M830 182 c-37 -30 -24 -103 19 -101 10 0 12 2 3 6 -23 9 -33 40 -22
68 8 21 16 26 38 23 21 -2 28 -9 30 -31 2 -17 -4 -37 -14 -48 -15 -17 -15 -19
-1 -19 32 0 51 76 25 98 -27 21 -55 22 -78 4z"/>
<path d="M1100 189 c-24 -7 -24 -7 6 -8 16 -1 35 -6 42 -13 17 -17 15 -54 -4
-72 -12 -13 -12 -16 -2 -16 51 0 49 96 -2 112 -8 3 -26 1 -40 -3z"/>
<path d="M961 128 c-1 -32 3 -58 8 -58 4 0 8 10 7 23 -1 17 5 23 27 25 23 3
27 0 27 -22 0 -14 5 -26 10 -26 6 0 10 25 10 55 0 30 -4 55 -10 55 -5 0 -10
-11 -10 -25 0 -37 -45 -35 -58 3 -9 24 -11 20 -11 -30z"/>
<path d="M630 100 c8 -5 20 -10 25 -10 6 0 3 5 -5 10 -8 5 -19 10 -25 10 -5 0
-3 -5 5 -10z"/>
<path d="M1238 63 c7 -3 16 -2 19 1 4 3 -2 6 -13 5 -11 0 -14 -3 -6 -6z"/>
<path d="M778 53 c7 -3 16 -2 19 1 4 3 -2 6 -13 5 -11 0 -14 -3 -6 -6z"/>
<path d="M1198 53 c7 -3 16 -2 19 1 4 3 -2 6 -13 5 -11 0 -14 -3 -6 -6z"/>
<path d="M838 43 c7 -3 16 -2 19 1 4 3 -2 6 -13 5 -11 0 -14 -3 -6 -6z"/>
<path d="M1138 43 c6 -2 18 -2 25 0 6 3 1 5 -13 5 -14 0 -19 -2 -12 -5z"/>
<path d="M948 33 c29 -2 74 -2 100 0 26 2 2 3 -53 3 -55 0 -76 -1 -47 -3z"/>
</g>
</svg>
