<svg xmlns="http://www.w3.org/2000/svg" width="435" height="96" viewBox="0 0 435 96">
  <path fill="#000000" stroke="#000000" stroke-width="1.5" d="M665.14,3973.48 L665.14,3987.73 L712.1,3987.73 L712.1,3973.48 L713.85,3973.48 L713.85,3989.48 L663.39,3989.48 L663.39,3973.48 L665.14,3973.48 Z M715.67,3923.81 C718.07,3923.81 720.34,3924.22 722.5,3925.03 C724.65,3925.84 726.53,3927.06 728.13,3928.68 C729.73,3930.3 731.01,3932.3 731.97,3934.68 C732.92,3937.06 733.39,3939.82 733.39,3942.96 C733.39,3946.1 732.92,3948.87 731.99,3951.27 C731.06,3953.67 729.79,3955.67 728.18,3957.27 C726.57,3958.88 724.7,3960.08 722.55,3960.89 C720.4,3961.7 718.11,3962.11 715.67,3962.11 C713.23,3962.11 710.93,3961.7 708.76,3960.89 C706.59,3960.08 704.7,3958.87 703.1,3957.27 C701.49,3955.67 700.22,3953.67 699.26,3951.27 C698.31,3948.87 697.83,3946.1 697.83,3942.96 C697.83,3939.82 698.31,3937.06 699.26,3934.68 C700.21,3932.3 701.51,3930.3 703.15,3928.68 C704.79,3927.06 706.69,3925.84 708.84,3925.03 C710.99,3924.22 713.27,3923.81 715.67,3923.81 Z M614.14,3923.84 C616.86,3923.84 619.1,3924.13 620.86,3924.71 C622.62,3925.29 623.91,3925.85 624.72,3926.38 L623.5,3929.45 C622.51,3928.75 621.17,3928.17 619.48,3927.73 C617.79,3927.29 615.95,3927.07 613.98,3927.07 C612.15,3927.07 610.42,3927.41 608.8,3928.08 C607.18,3928.75 605.77,3929.76 604.57,3931.1 C603.37,3932.44 602.43,3934.1 601.74,3936.07 C601.05,3938.05 600.71,3940.34 600.71,3942.95 C600.71,3945.38 600.99,3947.58 601.55,3949.54 C602.12,3951.5 602.97,3953.17 604.12,3954.57 C605.27,3955.96 606.69,3957.03 608.38,3957.77 C610.07,3958.51 612.03,3958.88 614.25,3958.88 C616.05,3958.88 617.56,3958.78 618.77,3958.59 C619.99,3958.4 620.81,3958.21 621.23,3958.03 L621.23,3943.96 L624.82,3943.96 L624.82,3960.31 C624.15,3960.59 622.84,3960.96 620.88,3961.4 C618.92,3961.84 616.51,3962.06 613.66,3962.06 C611.26,3962.06 609.04,3961.64 606.99,3960.79 C604.95,3959.94 603.17,3958.72 601.67,3957.11 C600.17,3955.51 599,3953.51 598.15,3951.13 C597.3,3948.75 596.88,3946.02 596.88,3942.95 C596.88,3939.88 597.34,3937.16 598.26,3934.77 C599.18,3932.39 600.42,3930.4 601.99,3928.79 C603.56,3927.18 605.38,3925.96 607.47,3925.11 C609.55,3924.26 611.78,3923.84 614.14,3923.84 Z M659.18,3924.28 C661.4,3924.28 663.47,3924.45 665.37,3924.78 C667.27,3925.12 668.92,3925.67 670.32,3926.45 C671.71,3927.23 672.8,3928.25 673.58,3929.52 C674.36,3930.79 674.74,3932.36 674.74,3934.23 C674.74,3935.96 674.33,3937.44 673.5,3938.67 C672.67,3939.9 671.52,3940.89 670.03,3941.63 C672.25,3942.37 673.89,3943.46 674.95,3944.91 C676.01,3946.36 676.54,3948.19 676.54,3950.41 C676.54,3954.18 675.16,3957.02 672.41,3958.9 C669.64,3960.8 665.42,3961.74 659.74,3961.74 C657.8,3961.74 655.84,3961.68 653.87,3961.56 C651.89,3961.44 650.17,3961.18 648.69,3960.79 L648.69,3925.18 C649.47,3925.04 650.29,3924.91 651.18,3924.78 C652.06,3924.66 652.96,3924.56 653.88,3924.49 C654.8,3924.42 655.71,3924.37 656.61,3924.33 C657.51,3924.3 658.36,3924.28 659.18,3924.28 Z M760.32,3924.66 L768.35,3936.7 L776.41,3924.66 L784.03,3924.66 L772.15,3942.4 C774.89,3945.98 777.32,3949.37 779.43,3952.57 C781.54,3955.77 783.32,3958.69 784.76,3961.33 L776.97,3961.33 L776.97,3961.32 C775.94,3959.4 774.65,3957.28 773.1,3954.97 C771.55,3952.66 769.92,3950.43 768.22,3948.27 C767.52,3949.11 766.76,3950.12 765.93,3951.28 C765.11,3952.45 764.28,3953.64 763.46,3954.85 C762.64,3956.07 761.87,3957.24 761.17,3958.38 C760.47,3959.51 759.91,3960.49 759.48,3961.32 L751.86,3961.32 C753.48,3958.39 755.35,3955.38 757.48,3952.29 C759.61,3949.2 761.92,3945.97 764.4,3942.59 L752.38,3924.66 L760.32,3924.66 Z M548.51,3924.65 L548.51,3954.49 C549.6,3952.55 551.01,3950.28 552.72,3947.67 C554.44,3945.06 556.28,3942.39 558.26,3939.66 C560.23,3936.92 562.25,3934.24 564.31,3931.61 C566.37,3928.98 568.3,3926.66 570.1,3924.65 L570.1,3924.65 L572.96,3924.65 L572.96,3961.33 L569.41,3961.33 L569.41,3930.44 C568.41,3931.64 567.26,3933.07 565.96,3934.72 C564.67,3936.37 563.34,3938.14 561.99,3940.03 C560.64,3941.92 559.28,3943.86 557.91,3945.86 C556.55,3947.86 555.24,3949.8 553.98,3951.67 C552.73,3953.54 551.59,3955.31 550.56,3956.98 C549.53,3958.65 548.68,3960.09 548,3961.32 L548,3961.32 L544.96,3961.32 L544.96,3924.65 L548.51,3924.65 Z M399.58,3924.65 L399.58,3961.32 L395.98,3961.32 L395.98,3924.65 L399.58,3924.65 Z M448.26,3924.65 L448.26,3927.77 L436.51,3927.77 L436.51,3961.32 L432.91,3961.32 L432.91,3927.77 L421.17,3927.77 L421.17,3924.65 L448.26,3924.65 Z M494.4,3924.65 L494.4,3927.77 L482.65,3927.77 L482.65,3961.32 L479.05,3961.32 L479.05,3927.77 L467.3,3927.77 L467.3,3924.65 L494.4,3924.65 Z M519.58,3924.65 L519.58,3961.32 L515.98,3961.32 L515.98,3924.65 L519.58,3924.65 Z M373.5,3924.65 L373.5,3927.77 L356.19,3927.77 L356.19,3940.68 L371.53,3940.68 L371.53,3943.8 L356.19,3943.8 L356.19,3961.31 L352.6,3961.31 L352.6,3924.65 L373.5,3924.65 Z M715.61,3929.68 C713.92,3929.68 712.4,3930 711.06,3930.63 C709.72,3931.26 708.58,3932.16 707.65,3933.33 C706.72,3934.49 706,3935.89 705.51,3937.51 C705.01,3939.13 704.77,3940.95 704.77,3942.96 C704.77,3944.97 705.02,3946.8 705.51,3948.44 C706,3950.08 706.72,3951.47 707.65,3952.62 C708.58,3953.76 709.72,3954.66 711.06,3955.29 C712.4,3955.92 713.92,3956.24 715.61,3956.24 C717.27,3956.24 718.77,3955.92 720.11,3955.29 C721.45,3954.66 722.59,3953.76 723.52,3952.62 C724.45,3951.47 725.17,3950.08 725.67,3948.44 C726.16,3946.8 726.41,3944.97 726.41,3942.96 C726.41,3940.95 726.16,3939.12 725.67,3937.48 C725.17,3935.84 724.46,3934.45 723.52,3933.3 C722.59,3932.16 721.45,3931.26 720.11,3930.63 C718.77,3930 717.27,3929.68 715.61,3929.68 Z M661.12,3944.8 L655.25,3944.8 L655.25,3955.98 C655.99,3956.05 656.78,3956.1 657.63,3956.14 C658.47,3956.17 659.25,3956.19 659.96,3956.19 C661.34,3956.19 662.61,3956.1 663.8,3955.92 C664.98,3955.74 666.01,3955.44 666.87,3954.99 C667.73,3954.55 668.42,3953.96 668.93,3953.22 C669.44,3952.48 669.7,3951.53 669.7,3950.36 C669.7,3948.28 668.94,3946.83 667.42,3946.02 C665.9,3945.21 663.8,3944.8 661.12,3944.8 Z M660.01,3929.73 C658.99,3929.73 658.08,3929.75 657.28,3929.78 C656.48,3929.82 655.81,3929.87 655.24,3929.94 L655.24,3939.57 L659.96,3939.57 C662.5,3939.57 664.49,3939.21 665.94,3938.49 C667.38,3937.77 668.11,3936.47 668.11,3934.6 C668.11,3932.84 667.36,3931.58 665.86,3930.84 C664.36,3930.1 662.41,3929.73 660.01,3929.73 Z M713.85,3895.91 L713.85,3911.08 L712.1,3911.08 L712.1,3897.66 L665.14,3897.66 L665.14,3911.08 L663.39,3911.08 L663.39,3895.91 L713.85,3895.91 Z" transform="translate(-351 -3895)"/>
</svg>
